<svg id="Layer_1" data-name="Layer 1" xmlns="http://www.w3.org/2000/svg" width="64" height="64" viewBox="0 0 64 64"><defs><style>.cls-1{fill:#fff;}.cls-2{fill:#1d1d1b;}</style></defs><title>moon-dreamy</title><g id="moon-dreamy"><path class="cls-1" d="M8.33,14.64c-.25-.25-3.17-2.83-2.5-6.33S11.66,3.56,14,4.81,17,10,17,10s6.33-2.58,10.33-2.83a36.47,36.47,0,0,1,7.17.25s-1.42-2.33.83-3.58,5.58-.5,6.25,1.08-.42,4-.42,4l-.75.33,1.83,3L44,10.48s.17-3.75,4.5-3.67,5.83,3.58,5.75,5a2.93,2.93,0,0,1-.75,2s5.42-.58,6,3.75-1.42,6.58-2.67,7.08-5.83.17-5.83.17a18.22,18.22,0,0,1,1.25,4.75c.08,1.92-1.92,4.33-1.92,4.33s5.17.42,6,4-4.08,6.67-4.08,6.67,3.33,2.92,3.25,6.5-1.75,7.08-4.25,8.08-6.58-.25-8.25-3.83a6.73,6.73,0,0,1-5.75,5.42c-5,.67-8.58-2.5-9.75-6.83,0,0-3.25-.58-5.58-1.25s-3.58-1.08-3.58-1.08.33,1.75.5,3.67-.17,4.33-1.58,4.83S10.41,59.81,7.66,57s-.75-7.08-.75-7.08l1-.33s-2.83-2.17-1.67-4.33S10.41,44,10.41,44A20.78,20.78,0,0,1,6.24,33c-.5-6.67.83-10.33.83-10.33S3.41,21.31,4.66,19A17.28,17.28,0,0,1,8.33,14.64Z"/><path class="cls-2" d="M9.16,10s-.59,2-.62,2.16.22.22.47.34,1.53-1.5,1.56-1.59,1,.28,1.28.19,0-.81,0-1S13,9,12.91,8.63s-1.41-.19-1.75-.25-.41-1.72-.87-1.78-.66,2-.72,2.09S8,8.62,7.79,8.7s-.28.41-.12.5Zm-2,8.72a.9.9,0,0,0-.25,1.38.88.88,0,0,0,1.38-.53C8.44,18.7,7.92,18.26,7.16,18.73ZM39.69,6.51a1.71,1.71,0,0,0-2.41-1.69,1.74,1.74,0,0,0-.62,2.84A1.8,1.8,0,0,0,39.69,6.51Zm-2.11-1a.92.92,0,0,1,1.3.91,1,1,0,0,1-1.64.63A.94.94,0,0,1,37.58,5.55Zm10,8c.34.13.38,2.06.69,2.09s1-1.31,1.16-1.41,1.69.47,2,.22-.59-1.5-.66-1.66.66-2.37.25-2.59-1.69.53-2,.56S47.72,8.85,47.38,9s-.15,3-.34,3-1.69.5-1.59.88S47.25,13.42,47.6,13.54Zm6.53,3.69A2.31,2.31,0,0,0,52.72,21c1.19,1.22,3.94,1.13,4.16-1A2.53,2.53,0,0,0,54.13,17.23Zm-.58,3.07a1.25,1.25,0,0,1,.76-2,1.37,1.37,0,0,1,1.49,1.48C55.69,20.91,54.2,21,53.55,20.3Zm-18.8,1.37A2,2,0,0,0,33.5,24.2c.5,1.09,3.22,1.56,3.81-.47S35.79,21.22,34.75,21.67Zm1.78,1.9a1.29,1.29,0,0,1-2.27.28A1.19,1.19,0,0,1,35,22.34C35.63,22.07,36.89,22.35,36.54,23.56Zm12,9.63c.28-.16-.25-2.34-.25-2.34s1.5-.75,1.56-1.06-1.87-.47-1.87-.47,0-3.06-.47-3-1.81,2.81-1.81,2.81c-.22.19-1.84.09-1.87.34s1.47.78,1.47.78-.66,1.88-.47,2.13,2.31-.84,2.31-.84S48.22,33.35,48.5,33.2Zm-13.06.94c-.56.16-1.28,1.06-.69,1.75a1.25,1.25,0,0,0,2-.31A1.12,1.12,0,0,0,35.44,34.13Zm14.53,3c-2.28.59-2,3.22-.37,3.63s3.72-.34,3.31-2.12S51,36.87,50,37.13ZM50.05,40a1,1,0,0,1,.21-2,1.19,1.19,0,0,1,1.65.84C52.14,39.77,51,40.19,50.05,40Zm-39.58,7A1.19,1.19,0,0,0,8.6,46a1.22,1.22,0,0,0-.16,1.84C9,48.29,10.5,48,10.47,46.95ZM34.54,54.1c-1.94.5-2.47,2.22-1,3.34a2.29,2.29,0,0,0,3.5-1.37A1.89,1.89,0,0,0,34.54,54.1Zm-.34,2.63c-.79-.59-.51-1.49.51-1.76A1,1,0,0,1,36,56,1.2,1.2,0,0,1,34.19,56.73Zm17.56-4.66s.06-2.69,0-2.84-.09-.16-.5,0-1.94,2.88-2,3-2.44.06-2.59.13-.16.41-.09.66,2.19.44,2.19.44a8.28,8.28,0,0,1-.78,1.28c-.22.19.22.47.38.59a10.94,10.94,0,0,0,2.22-.87L51,55.51a.75.75,0,0,0,.69.09c.34-.16,0-2.09,0-2.09s1.09-.84,1.06-1.16S51.75,52.07,51.75,52.07ZM15.69,55.54a2.74,2.74,0,0,0-.62-2.69,2.37,2.37,0,0,0-2.72-.47s-1.87-2-2.59-.66.78,2.69.78,2.69A1.9,1.9,0,0,0,11,56.76a2.89,2.89,0,0,0,2.59.38s2.38,1.59,3,.44S15.69,55.54,15.69,55.54Zm-4.84-1.72s-.91-1.09-.53-1.56,1.56.47,1.56.47S10.91,53.82,10.85,53.82Zm.72,2.62c-.62-.34-.06-1.28-.06-1.28s1,1,1.31,1.22l.28.22A2.61,2.61,0,0,1,11.57,56.45Zm2.59-.28A4.53,4.53,0,0,1,11.75,54s1.16-1.81,2.5-.81S14.25,56.2,14.16,56.17Zm1.63,1c-.31.22-1.16-.37-1.16-.37l.44-.69C15.35,56.29,16.1,57,15.79,57.2Zm-2.25-3.84c-.34,0-.91.53-.91.53a1.91,1.91,0,0,1,.22.47l.56-.34.63-.37A.68.68,0,0,0,13.54,53.35ZM41,42.79c-.56.16-5.12,2.22-9.22,1s-5.34-4-5.31-6,.38-3.53.47-4.72c0-.53-3.81-2.25-3.87-7.19s2.38-9,8.31-10.19,8.5-.12,8.94-.56.75-2.75-2.75-4.81S23.47,7,15.16,14.92,7.72,31.38,8.57,34.79a20.89,20.89,0,0,0,8,11.91c4.84,3.34,7.53,4.44,11.78,5.09s8.75-1.41,11.19-3.06,3-3.41,2.94-4.16S41.6,42.63,41,42.79Zm-2.92,4.94A15,15,0,0,1,30.66,50a9.46,9.46,0,0,1-5.35-1.1c-.1-.12,0-1.85-.08-2s-.73-.19-.83-.19.06,1.79,0,1.81a2.26,2.26,0,0,1-.65-.42c-.06-.08,0-2.58-.08-2.79s-1-.23-1.08-.1A22.59,22.59,0,0,0,22.81,48c0,.06-.48-.31-.6-.37A10.8,10.8,0,0,1,22,46a1,1,0,0,0-.77,0c-.19.1.13,1.4.13,1.4a9.73,9.73,0,0,1-2-1.17,24.31,24.31,0,0,1-6-6A18.91,18.91,0,0,1,10,30a14.83,14.83,0,0,1,2.19-8A18.9,18.9,0,0,1,17,15.58a25.41,25.41,0,0,1,9.21-4.67,16.76,16.76,0,0,1,9.23.15c1.81.71,3.1,2.75,2.85,2.81-.08,0-3.44-.17-5.35-.1A14.8,14.8,0,0,0,24.08,18c-2.75,2.9-3.27,5.83-3.06,9.27s3.94,6.35,4,6.58-.67,3.38-.5,4.83S25.89,43,30,45s10.31-.29,10.46-.27.19.1.29.38S39.79,46.69,38.12,47.73ZM23.72,16.19a1.72,1.72,0,0,0,2.46-1.79,1.59,1.59,0,0,0-2.08-1.21C22.89,13.62,22.08,15.62,23.72,16.19ZM24.31,14a.76.76,0,0,1,1,.58.83.83,0,0,1-1.18.86C23.34,15.15,23.73,14.19,24.31,14ZM17.43,21c1.52,1,3.6-.44,3.4-2.31s-2.59-2-3.35-1.42A2.34,2.34,0,0,0,17.43,21ZM18,18.11c.44-.32,1.82-.27,1.94.82a1.33,1.33,0,0,1-2,1.34A1.36,1.36,0,0,1,18,18.11Zm-4.65,8a22.58,22.58,0,0,0,1.54-4.21c0-.4-.61-.5-.75-.37a10.5,10.5,0,0,0-1.71,4.56C12.58,26.5,13,26.37,13.33,26.1Zm.94,2.67c-2.19.92-1.87,3.21-1,4.58s4.27,2.29,4.75-1.15S15.61,28.21,14.27,28.77Zm3,3.25c-.34,2.4-2.7,1.76-3.32.8s-.85-2.57.68-3.21C15.53,29.22,17.56,29.61,17.23,32Zm2.14,5.65c-2.19.92-1.87,3.21-1,4.58s4.27,2.29,4.75-1.15S20.71,37.1,19.37,37.67Zm3,3.25c-.34,2.4-2.7,1.76-3.32.8s-.85-2.57.68-3.21C20.63,38.12,22.67,38.51,22.33,40.92Zm5.33,5a1.26,1.26,0,0,0,0,2.4c.94.33,1.58-.35,1.6-1.25A1.13,1.13,0,0,0,27.66,45.87Zm.21,1.75a.59.59,0,0,1,0-1.12.53.53,0,0,1,.76.54C28.62,47.45,28.31,47.78,27.87,47.62Z"/></g></svg>