<?xml version="1.0" encoding="UTF-8" standalone="no"?>
<svg
   xmlns:dc="http://purl.org/dc/elements/1.1/"
   xmlns:cc="http://creativecommons.org/ns#"
   xmlns:rdf="http://www.w3.org/1999/02/22-rdf-syntax-ns#"
   xmlns:svg="http://www.w3.org/2000/svg"
   xmlns="http://www.w3.org/2000/svg"
   xmlns:sodipodi="http://sodipodi.sourceforge.net/DTD/sodipodi-0.dtd"
   xmlns:inkscape="http://www.inkscape.org/namespaces/inkscape"
   width="64pt"
   height="64pt"
   viewBox="0 0 22.577778 22.577778"
   version="1.1"
   id="svg831"
   inkscape:version="1.0 (4035a4fb49, 2020-05-01)"
   sodipodi:docname="6 - Eclipse.svg"
   inkscape:export-filename="C:\Users\RainBoyz\Desktop\DONE\Expand [Done!]\PNG\6 - Eclipse.png"
   inkscape:export-xdpi="576"
   inkscape:export-ydpi="576">
  <defs
     id="defs825">
    <pattern
       id="EMFhbasepattern"
       patternUnits="userSpaceOnUse"
       width="6"
       height="6"
       x="0"
       y="0" />
    <pattern
       id="EMFhbasepattern-9"
       patternUnits="userSpaceOnUse"
       width="6"
       height="6"
       x="0"
       y="0" />
    <pattern
       id="EMFhbasepattern-0"
       patternUnits="userSpaceOnUse"
       width="6"
       height="6"
       x="0"
       y="0" />
    <pattern
       id="EMFhbasepattern-7"
       patternUnits="userSpaceOnUse"
       width="6"
       height="6"
       x="0"
       y="0" />
    <pattern
       id="EMFhbasepattern-2"
       patternUnits="userSpaceOnUse"
       width="6"
       height="6"
       x="0"
       y="0" />
    <pattern
       id="EMFhbasepattern-98"
       patternUnits="userSpaceOnUse"
       width="6"
       height="6"
       x="0"
       y="0" />
    <pattern
       id="EMFhbasepattern-6"
       patternUnits="userSpaceOnUse"
       width="6"
       height="6"
       x="0"
       y="0" />
    <pattern
       id="EMFhbasepattern-01"
       patternUnits="userSpaceOnUse"
       width="6"
       height="6"
       x="0"
       y="0" />
    <pattern
       id="EMFhbasepattern-07"
       patternUnits="userSpaceOnUse"
       width="6"
       height="6"
       x="0"
       y="0" />
    <pattern
       id="EMFhbasepattern-8"
       patternUnits="userSpaceOnUse"
       width="6"
       height="6"
       x="0"
       y="0" />
    <pattern
       id="EMFhbasepattern-4"
       patternUnits="userSpaceOnUse"
       width="6"
       height="6"
       x="0"
       y="0" />
    <pattern
       id="EMFhbasepattern-40"
       patternUnits="userSpaceOnUse"
       width="6"
       height="6"
       x="0"
       y="0" />
    <pattern
       id="EMFhbasepattern-08"
       patternUnits="userSpaceOnUse"
       width="6"
       height="6"
       x="0"
       y="0" />
    <pattern
       id="EMFhbasepattern-04"
       patternUnits="userSpaceOnUse"
       width="6"
       height="6"
       x="0"
       y="0" />
    <pattern
       id="EMFhbasepattern-014"
       patternUnits="userSpaceOnUse"
       width="6"
       height="6"
       x="0"
       y="0" />
    <pattern
       id="EMFhbasepattern-27"
       patternUnits="userSpaceOnUse"
       width="6"
       height="6"
       x="0"
       y="0" />
    <pattern
       id="EMFhbasepattern-09"
       patternUnits="userSpaceOnUse"
       width="6"
       height="6"
       x="0"
       y="0" />
    <pattern
       id="EMFhbasepattern-5"
       patternUnits="userSpaceOnUse"
       width="6"
       height="6"
       x="0"
       y="0" />
    <pattern
       id="EMFhbasepattern-018"
       patternUnits="userSpaceOnUse"
       width="6"
       height="6"
       x="0"
       y="0" />
  </defs>
  <sodipodi:namedview
     id="base"
     pagecolor="#ffffff"
     bordercolor="#666666"
     borderopacity="1.0"
     inkscape:pageopacity="0.0"
     inkscape:pageshadow="2"
     inkscape:zoom="6.1523438"
     inkscape:cx="14.953651"
     inkscape:cy="42.666667"
     inkscape:document-units="pt"
     inkscape:current-layer="layer1"
     showgrid="false"
     units="pt"
     inkscape:window-width="1366"
     inkscape:window-height="715"
     inkscape:window-x="-8"
     inkscape:window-y="-8"
     inkscape:window-maximized="1"
     inkscape:pagecheckerboard="true"
     inkscape:showpageshadow="false"
     inkscape:object-paths="true"
     inkscape:snap-intersection-paths="true"
     inkscape:snap-smooth-nodes="true"
     inkscape:snap-midpoints="true"
     showguides="true"
     inkscape:snap-bbox="true"
     inkscape:bbox-nodes="true"
     inkscape:snap-nodes="false"
     inkscape:snap-global="true"
     inkscape:document-rotation="0">
    <inkscape:grid
       type="xygrid"
       id="grid1378" />
    <sodipodi:guide
       position="0.97013831,21.607643"
       orientation="78.000048,0"
       id="guide1380"
       inkscape:locked="false" />
    <sodipodi:guide
       position="0.97013831,0.97013129"
       orientation="0,78.000005"
       id="guide1382"
       inkscape:locked="false" />
    <sodipodi:guide
       position="21.607639,0.97013129"
       orientation="-78.000048,0"
       id="guide1384"
       inkscape:locked="false" />
    <sodipodi:guide
       position="21.607639,21.607643"
       orientation="0,-78.000005"
       id="guide1386"
       inkscape:locked="false" />
  </sodipodi:namedview>
  <metadata
     id="metadata828">
    <rdf:RDF>
      <cc:Work
         rdf:about="">
        <dc:format>image/svg+xml</dc:format>
        <dc:type
           rdf:resource="http://purl.org/dc/dcmitype/StillImage" />
        <dc:title></dc:title>
      </cc:Work>
    </rdf:RDF>
  </metadata>
  <g
     inkscape:label="Icon"
     inkscape:groupmode="layer"
     id="layer1"
     transform="translate(0,-274.42223)">
    <path
       sodipodi:nodetypes="ccccccccccccccccccsccsccsccscccccsscccsccccccccsssccsscccsccsccsscscscsscscscccccccccccccccccccccsccsccscccccccccccccccccscccccssccccsccccccccsscssssssscsssccsscccccsccccccccccsccccssssscccscscs"
       d="m 8.247652,275.81055 c -0.00419,1.5e-4 -0.00839,3.4e-4 -0.012451,6.7e-4 -0.010799,1.6e-4 -0.021484,6.8e-4 -0.032169,0.003 -0.1841995,0.0295 -0.3091408,0.20337 -0.278372,0.38736 l 0.6059882,3.71474 c 0.029882,0.18243 0.201468,0.30651 0.3840794,0.27772 0.1838971,-0.0295 0.3087367,-0.20295 0.278372,-0.38672 L 8.5877669,276.0926 c -0.02743,-0.16535 -0.1725224,-0.28522 -0.3400899,-0.28099 z m 8.870566,0.53246 c -0.0072,2.1e-4 -0.01446,6.8e-4 -0.02169,0.001 -0.104219,0.0114 -0.196971,0.0715 -0.250799,0.16151 l -1.908575,3.18096 c -0.09595,0.15899 -0.04478,0.36566 0.114243,0.46155 0.158991,0.0959 0.365663,0.0448 0.461547,-0.11422 l 1.908575,-3.18095 c 0.09595,-0.159 0.0448,-0.36568 -0.114242,-0.46156 -0.05683,-0.0346 -0.122641,-0.0515 -0.189085,-0.0485 z m -4.438892,0.62175 c -0.184628,6.7e-4 -0.334119,0.15022 -0.334838,0.33484 v 1.92565 c 6.72e-4,0.18462 0.15021,0.33411 0.334838,0.33483 0.185653,6.8e-4 0.33674,-0.14919 0.337461,-0.33483 v -1.92565 c -6.72e-4,-0.18565 -0.151808,-0.33557 -0.337461,-0.33484 z m -7.3723316,2.83364 c -0.085123,0.004 -0.1658498,0.0386 -0.2258525,0.0991 -0.1303701,0.13113 -0.1303701,0.34291 0,0.47403 l 1.3597015,1.36232 c 0.1314182,0.13212 0.3452328,0.13212 0.4766511,0 0.1316812,-0.13134 0.1316812,-0.34464 0,-0.47598 L 5.5551669,279.8975 c -0.065468,-0.0659 -0.1553009,-0.10177 -0.2481725,-0.0991 z m 13.2844396,4.63389 c -0.834618,-1.59964 -1.574978,-2.62377 -3.339849,-3.61493 -0.875563,-0.41963 -1.855667,-0.65654 -2.890108,-0.65654 l 8e-5,-10e-6 c -3.6957562,0 -6.700031,3.00428 -6.700031,6.70003 0.1143695,1.37325 0.4918652,2.73683 1.1312127,3.71998 1.2007467,1.79479 3.2491953,2.97744 5.5688053,2.97744 0.978631,-0.0189 1.873544,-0.2139 2.733192,-0.58827 2.334784,-1.04721 3.966842,-3.38753 3.966842,-6.10914 0.01932,-0.82411 -0.126681,-1.62725 -0.470144,-2.42856 z m -6.229877,-3.59917 c 0.90861,0 1.766598,0.20341 2.538202,0.56266 0.595678,0.93551 0.943453,2.04372 0.943453,3.23676 0,3.33242 -2.695319,6.02707 -6.0277293,6.02707 -0.9048406,0 -1.7600241,-0.19977 -2.5303236,-0.5561 -0.5999509,-0.93672 -0.9506773,-2.0463 -0.9506735,-3.24267 0,-3.33242 2.6946526,-6.02772 6.0270714,-6.02772 z m 0,0.60073 c -0.871668,0 -1.691089,0.23111 -2.3970395,0.63751 -0.1613954,0.0925 -0.2170048,0.29844 -0.1240887,0.45958 0.092453,0.161 0.2979342,0.21656 0.4589262,0.12412 0.607226,-0.34956 1.309872,-0.54886 2.062203,-0.54886 0.647277,0 1.256796,0.14842 1.801558,0.41231 0.167157,0.0809 0.368247,0.0114 0.449078,-0.15626 0.08135,-0.16732 0.01131,-0.3689 -0.15626,-0.44974 -0.633645,-0.30695 -1.344432,-0.47862 -2.094376,-0.47862 z m 3.470269,0.4664 c 0.916034,0.82376 1.51523,1.58641 1.975766,2.5478 -0.409996,0.21681 -0.691341,0.64656 -0.691341,1.13976 0,0.70272 0.571873,1.27828 1.272381,1.28814 -0.0057,2.31521 -1.31336,4.31649 -3.22954,5.32063 -0.151661,-0.34096 -0.494158,-0.58169 -0.88896,-0.58169 -0.533085,0 -0.972998,0.43728 -0.972998,0.97036 0,0.0743 0.0095,0.14651 0.02561,0.21667 -0.313639,0.0502 -0.930807,0.10469 -1.258756,0.10469 -1.687566,0 -3.1686012,-0.8347 -4.2612723,-1.95015 0.543733,0.14225 1.4254392,0.37618 2.0127716,0.37618 1.1357317,0 2.2055447,-0.28626 3.1435317,-0.78655 0.237124,0.28651 0.595057,0.46877 0.993353,0.46877 0.708766,0 1.290108,-0.58197 1.290108,-1.29077 0,-0.30263 -0.106836,-0.58254 -0.282971,-0.80425 0.970597,-1.1626 1.55601,-2.65699 1.55601,-4.28723 -0.03597,-1.56887 -0.683697,-2.7323 -0.683697,-2.7323 z m 4.094432,0.93795 c -0.185653,-7.3e-4 -0.336742,0.14918 -0.337465,0.33484 -6.72e-4,0.18667 0.150787,0.33819 0.337465,0.33747 0.185653,-7.5e-4 0.335562,-0.15183 0.334836,-0.33747 -6.72e-4,-0.18463 -0.150208,-0.33411 -0.334836,-0.33484 z m -11.1428657,0.12934 c -0.085669,0.001 -0.1674023,0.0363 -0.2284748,0.0966 -0.4054007,0.4054 -0.7329293,0.88816 -0.959868,1.4247 -0.072761,0.17113 0.00724,0.36885 0.1785801,0.44119 0.171323,0.0732 0.3695068,-0.006 0.4418536,-0.17858 0.1927054,-0.45561 0.4711244,-0.8657 0.8160829,-1.21066 0.132117,-0.13142 0.132117,-0.34523 0,-0.47665 -0.065913,-0.0649 -0.1556923,-0.0999 -0.2481738,-0.0966 z m -7.4786904,0.37423 c -0.1644885,8.1e-4 -0.3042229,0.12057 -0.33024437,0.28297 -0.0292784,0.18198 0.093423,0.3536 0.27509217,0.38474 l 3.7147287,0.60533 c 0.1837777,0.0307 0.3575299,-0.0938 0.3873598,-0.27772 0.029183,-0.18284 -0.094982,-0.35486 -0.2777178,-0.38473 l -3.7147251,-0.60534 c -0.017984,-0.004 -0.036217,-0.005 -0.054494,-0.005 z m 16.7707581,1.72539 c 0.130064,0.35977 0.221177,0.73792 0.270498,1.13254 -0.3157,-0.0301 -0.557405,-0.28724 -0.557405,-0.61189 0,-0.22225 0.114763,-0.41201 0.286907,-0.52065 z m -15.2895948,2.72926 c -0.1856525,7.1e-4 -0.3355657,0.15181 -0.3348396,0.33747 6.724e-4,0.18462 0.1502123,0.33412 0.3348396,0.33483 H 4.711507 c 0.1846274,-7.1e-4 0.3341196,-0.15021 0.33484,-0.33483 6.721e-4,-0.18566 -0.1491873,-0.33675 -0.33484,-0.33747 z m 17.4850618,0.70779 -0.103736,0.38408 h -0.239638 c -0.186677,-7.5e-4 -0.338195,0.15078 -0.337465,0.33746 6.73e-4,0.18565 0.151813,0.33557 0.337465,0.33483 h 0.05843 l -0.06106,0.22586 c -0.04797,0.17951 0.05877,0.36388 0.238327,0.41165 0.178705,0.0482 0.36272,-0.0572 0.411654,-0.2357 l 0.02363,-0.0887 0.02363,0.0887 c 0.04893,0.17883 0.233392,0.28428 0.412312,0.2357 0.179293,-0.048 0.285691,-0.23235 0.237668,-0.41165 l -0.06106,-0.22586 h 0.05909 c 0.185649,7.5e-4 0.336738,-0.14918 0.337461,-0.33483 6.72e-4,-0.18668 -0.150783,-0.3382 -0.337461,-0.33746 h -0.239639 l -0.105705,-0.39393 c -0.01852,-0.11815 -0.09379,-0.26571 -0.321706,-0.25474 -0.175537,-0.0127 -0.309641,0.1179 -0.332204,0.26459 z m -3.368709,0.38601 c -0.185653,-7.4e-4 -0.336742,0.1492 -0.337465,0.33484 -6.72e-4,0.18668 0.150787,0.3382 0.337465,0.33747 0.185649,-7.4e-4 0.335562,-0.15181 0.334835,-0.33747 -6.72e-4,-0.18463 -0.150208,-0.33411 -0.334835,-0.33484 z m -2.410176,0.53246 c 0.04931,0.0891 0.07814,0.191 0.07814,0.30135 0,0.34545 -0.272389,0.61782 -0.617807,0.61782 -0.154294,0 -0.289447,-0.0602 -0.396554,-0.15232 0.335542,-0.22649 0.647537,-0.48498 0.93623,-0.76685 z m -8.8239514,0.91917 c -0.056524,0.003 -0.1116253,0.0183 -0.1601961,0.0473 l -3.1809555,1.90857 c -0.1599707,0.095 -0.2123496,0.30186 -0.1168622,0.46155 0.095222,0.15973 0.3020412,0.21181 0.461548,0.11625 l 3.1816148,-1.91054 c 0.159735,-0.0953 0.2118085,-0.30204 0.1162118,-0.46155 -0.058303,-0.096 -0.1608009,-0.15673 -0.2731224,-0.16151 -0.0094,-4e-4 -0.018829,-4e-4 -0.028243,0 z m 6.1905554,1.23627 c -0.185653,-7.5e-4 -0.336742,0.14918 -0.337465,0.33484 -6.72e-4,0.18667 0.150787,0.33819 0.337465,0.33745 0.185653,-7.3e-4 0.335562,-0.15181 0.334836,-0.33745 -6.73e-4,-0.18463 -0.150209,-0.33413 -0.334836,-0.33484 z m 7.732776,0.67362 c -0.185653,-7.5e-4 -0.336743,0.14918 -0.337465,0.33483 -6.73e-4,0.18668 0.150786,0.33819 0.337465,0.33746 0.185649,-7.4e-4 0.335561,-0.15181 0.334836,-0.33746 -6.72e-4,-0.18462 -0.150209,-0.33412 -0.334836,-0.33483 z m -5.32129,0.0334 c 0.128947,0 0.234069,0.0759 0.277718,0.18646 -0.183414,0.0713 -0.370996,0.13372 -0.56266,0.18711 -0.0064,-0.0241 -0.01577,-0.047 -0.01577,-0.0736 0,-0.16976 0.130958,-0.30004 0.300697,-0.30004 z m 3.292567,1.35446 c -0.185084,0.001 -0.294575,0.10036 -0.328926,0.26654 l -0.103736,0.38409 h -0.239638 c -0.185653,-7.4e-4 -0.336742,0.14918 -0.337465,0.33483 -6.72e-4,0.18668 0.150787,0.3382 0.337465,0.33747 h 0.05843 l -0.06106,0.22584 c -0.04797,0.17951 0.05876,0.36389 0.238325,0.41166 0.179501,0.048 0.363882,-0.0587 0.411653,-0.23832 l 0.02363,-0.0881 0.02363,0.0881 c 0.04776,0.17989 0.232596,0.28672 0.412309,0.23832 0.179293,-0.048 0.285692,-0.23235 0.237669,-0.41166 l -0.06106,-0.22584 h 0.05909 c 0.186677,7.4e-4 0.338195,-0.15079 0.337465,-0.33747 -6.73e-4,-0.18565 -0.151813,-0.33556 -0.337465,-0.33483 h -0.24029 L 17.88702,293.8963 c -0.07436,-0.20698 -0.187508,-0.26143 -0.324323,-0.2567 z m -6.376355,0.62764 c -0.185653,-7.3e-4 -0.336742,0.1492 -0.337465,0.33484 -6.72e-4,0.18669 0.150787,0.33821 0.337465,0.33747 0.185653,-7.4e-4 0.335562,-0.15181 0.334837,-0.33747 -6.72e-4,-0.18463 -0.150209,-0.33411 -0.334837,-0.33484 z"
       style="color:#000000;font-style:normal;font-variant:normal;font-weight:normal;font-stretch:normal;font-size:medium;line-height:normal;font-family:sans-serif;font-variant-ligatures:normal;font-variant-position:normal;font-variant-caps:normal;font-variant-numeric:normal;font-variant-alternates:normal;font-variant-east-asian:normal;font-feature-settings:normal;font-variation-settings:normal;text-indent:0;text-align:start;text-decoration:none;text-decoration-line:none;text-decoration-style:solid;text-decoration-color:#000000;letter-spacing:normal;word-spacing:normal;text-transform:none;writing-mode:lr-tb;direction:ltr;text-orientation:mixed;dominant-baseline:auto;baseline-shift:baseline;text-anchor:start;white-space:normal;shape-padding:0;shape-margin:0;inline-size:0;clip-rule:nonzero;display:inline;overflow:visible;visibility:visible;opacity:1;isolation:auto;mix-blend-mode:normal;color-interpolation:sRGB;color-interpolation-filters:linearRGB;solid-color:#000000;solid-opacity:1;vector-effect:none;fill:#000000;fill-opacity:1;fill-rule:nonzero;stroke:none;stroke-width:0.672301;stroke-linecap:round;stroke-linejoin:round;stroke-miterlimit:4;stroke-dasharray:none;stroke-dashoffset:0;stroke-opacity:1;color-rendering:auto;image-rendering:auto;shape-rendering:auto;text-rendering:auto;enable-background:accumulate;stop-color:#000000;stop-opacity:1"
       id="path1677" />
  </g>
</svg>
